<svg width="38" height="27" viewBox="0 0 38 27" fill="none" xmlns="http://www.w3.org/2000/svg">
<path d="M12.0893 13.4689C15.8028 13.4689 18.8237 10.4479 18.8237 6.73443C18.8237 3.02092 15.8028 0 12.0893 0C8.37394 0 5.35303 3.02092 5.35303 6.73443C5.35303 10.4479 8.37578 13.4689 12.0893 13.4689ZM12.0893 2.76303C14.2776 2.76303 16.0607 4.54427 16.0607 6.73443C16.0607 8.92275 14.2795 10.7058 12.0893 10.7058C9.89913 10.7058 8.11606 8.9246 8.11606 6.73443C8.11606 4.54427 9.89913 2.76303 12.0893 2.76303Z" fill="#1E1E1E"/>
<path d="M35.9286 19.3007C34.8547 18.2286 33.4272 17.6373 31.9112 17.6373H21.8888C21.8409 17.6373 21.8003 17.6594 21.7543 17.6649C20.5496 16.6555 19.0207 16.0605 17.4421 16.0605H6.73444C4.96242 16.0605 3.22539 16.7789 1.97282 18.0334C0.701823 19.3043 0 20.9953 0 22.795V25.4714C0 26.234 0.618919 26.853 1.38152 26.853C2.14411 26.853 2.76303 26.234 2.76303 25.4714V22.795C2.76303 21.734 3.17565 20.7356 3.92536 19.9859C4.66401 19.2472 5.68818 18.8236 6.7326 18.8236H17.4403C18.4847 18.8236 19.5089 19.2472 20.2475 19.9859C20.988 20.7264 21.4117 21.7506 21.4117 22.795V25.4714C21.4117 26.234 22.0306 26.853 22.7932 26.853C23.5558 26.853 24.1747 26.234 24.1747 25.4714V22.795C24.1747 21.9624 24.0089 21.1574 23.7216 20.4004H31.9094C32.6885 20.4004 33.4216 20.7043 33.9743 21.255C34.5176 21.7984 34.829 22.5518 34.829 23.32V25.4696C34.829 26.2322 35.4479 26.8511 36.2105 26.8511C36.9731 26.8511 37.592 26.2322 37.592 25.4696V23.32C37.5938 21.8021 37.0025 20.3746 35.9286 19.3007Z" fill="#1E1E1E"/>
<path d="M27.6138 16.0998C30.7471 16.0998 33.2964 13.5504 33.2964 10.419C33.2964 7.28569 30.7471 4.73633 27.6138 4.73633C24.4805 4.73633 21.9312 7.28569 21.9312 10.419C21.9312 13.5504 24.4805 16.0998 27.6138 16.0998ZM27.6138 7.49752C29.2237 7.49752 30.5334 8.8072 30.5334 10.4171C30.5334 12.0271 29.2237 13.3349 27.6138 13.3349C26.0039 13.3349 24.6942 12.0252 24.6942 10.4171C24.6942 8.8072 26.0039 7.49752 27.6138 7.49752Z" fill="#1E1E1E"/>
</svg>
